<svg width="25" height="25" viewBox="0 0 25 25" fill="#101010" xmlns="http://www.w3.org/2000/svg">
<path d="M24.9755 7.35007C24.917 6.02172 24.7022 5.1085 24.3944 4.31717C24.077 3.4772 23.5886 2.72518 22.9488 2.10002C22.3236 1.46513 21.5666 0.971793 20.7364 0.659308C19.9405 0.351593 19.032 0.136784 17.7037 0.0782166C16.3654 0.0146894 15.9406 0 12.5464 0C9.15213 0 8.72729 0.0146894 7.39398 0.0732565C6.06563 0.131824 5.15241 0.346824 4.36128 0.654348C3.52112 0.971793 2.76909 1.46017 2.14393 2.10002C1.50904 2.72518 1.0159 3.48216 0.703223 4.3124C0.395508 5.1085 0.180698 6.01676 0.122131 7.34511C0.0586042 8.68338 0.0439148 9.10822 0.0439148 12.5024C0.0439148 15.8967 0.0586042 16.3215 0.117171 17.6548C0.175738 18.9832 0.390738 19.8964 0.698454 20.6877C1.0159 21.5277 1.50904 22.2797 2.14393 22.9049C2.76909 23.5398 3.52608 24.0331 4.35632 24.3456C5.15241 24.6533 6.06067 24.8681 7.38921 24.9267C8.72233 24.9854 9.14737 24.9999 12.5416 24.9999C15.9358 24.9999 16.3606 24.9854 17.694 24.9267C19.0223 24.8681 19.9355 24.6533 20.7267 24.3456C22.4068 23.696 23.7351 22.3677 24.3847 20.6877C24.6922 19.8916 24.9072 18.9832 24.9658 17.6548C25.0244 16.3215 25.0391 15.8967 25.0391 12.5024C25.0391 9.10822 25.0341 8.68338 24.9755 7.35007ZM22.7242 17.5571C22.6704 18.7781 22.4654 19.4374 22.2944 19.8769C21.8743 20.966 21.01 21.8304 19.9208 22.2505C19.4813 22.4214 18.8172 22.6265 17.601 22.6801C16.2824 22.7389 15.887 22.7534 12.5513 22.7534C9.21566 22.7534 8.81523 22.7389 7.50138 22.6801C6.28044 22.6265 5.62114 22.4214 5.1816 22.2505C4.63961 22.0502 4.14628 21.7328 3.74585 21.3176C3.33073 20.9123 3.01328 20.4239 2.81297 19.8819C2.64204 19.4424 2.43696 18.7781 2.38335 17.5621C2.32459 16.2435 2.3101 15.8478 2.3101 12.5122C2.3101 9.17652 2.32459 8.77609 2.38335 7.46243C2.43696 6.24149 2.64204 5.58218 2.81297 5.14264C3.01328 4.60047 3.33073 4.10732 3.75081 3.7067C4.15601 3.29158 4.64438 2.97414 5.18656 2.77402C5.6261 2.60309 6.29036 2.39801 7.50634 2.34421C8.82496 2.28564 9.22062 2.27095 12.5561 2.27095C15.8967 2.27095 16.2922 2.28564 17.606 2.34421C18.8269 2.39801 19.4863 2.60309 19.9258 2.77402C20.4678 2.97414 20.9611 3.29158 21.3615 3.7067C21.7767 4.11209 22.0941 4.60047 22.2944 5.14264C22.4654 5.58218 22.6704 6.24626 22.7242 7.46243C22.7828 8.78105 22.7975 9.17652 22.7975 12.5122C22.7975 15.8478 22.7828 16.2385 22.7242 17.5571Z" />
<path d="M12.5471 6.08203C9.00165 6.08203 6.125 8.95849 6.125 12.5042C6.125 16.0499 9.00165 18.9263 12.5471 18.9263C16.0928 18.9263 18.9693 16.0499 18.9693 12.5042C18.9693 8.95849 16.0928 6.08203 12.5471 6.08203ZM12.5471 16.6701C10.247 16.6701 8.38126 14.8045 8.38126 12.5042C8.38126 10.2039 10.247 8.33829 12.5471 8.33829C14.8475 8.33829 16.713 10.2039 16.713 12.5042C16.713 14.8045 14.8475 16.6701 12.5471 16.6701Z" />
<path d="M20.7214 5.8274C20.7214 6.65535 20.0501 7.32668 19.2219 7.32668C18.394 7.32668 17.7227 6.65535 17.7227 5.8274C17.7227 4.99926 18.394 4.32812 19.2219 4.32812C20.0501 4.32812 20.7214 4.99926 20.7214 5.8274Z" />
</svg>