<svg width="25" height="20" viewBox="0 0 25 20" fill="#101010" xmlns="http://www.w3.org/2000/svg">
<path d="M8.14437 19.8876C16.9892 19.8876 21.826 12.56 21.826 6.20601C21.826 5.99789 21.8217 5.79063 21.8124 5.58452C22.7512 4.90571 23.5672 4.05862 24.211 3.09444C23.3495 3.47756 22.4221 3.73513 21.4496 3.85165C22.4423 3.25611 23.2046 2.31443 23.564 1.19186C22.635 1.74268 21.606 2.14286 20.5107 2.35901C19.6332 1.42435 18.3838 0.839844 17.0005 0.839844C14.3451 0.839844 12.1916 2.99325 12.1916 5.64773C12.1916 6.02527 12.2339 6.39219 12.3163 6.74421C8.31981 6.54312 4.77581 4.6298 2.4044 1.72018C1.99161 2.43067 1.75339 3.25626 1.75339 4.13717C1.75339 5.80525 2.60234 7.27826 3.89318 8.13968C3.10428 8.11546 2.36326 7.89889 1.71541 7.53841C1.71469 7.55862 1.71469 7.57826 1.71469 7.59976C1.71469 9.92859 3.37217 11.873 5.57273 12.3136C5.16853 12.4236 4.74327 12.4827 4.30468 12.4827C3.99537 12.4827 3.6938 12.4524 3.40084 12.396C4.013 14.3066 5.7883 15.6969 7.89297 15.7359C6.2471 17.0259 4.17382 17.7943 1.92051 17.7943C1.53295 17.7943 1.14982 17.7721 0.773438 17.7277C2.90161 19.0917 5.42868 19.8878 8.14451 19.8878" />
</svg>